HIERARCHY
ROOT Hips
{
	OFFSET 0.000000 0.000000 0.000000
	CHANNELS 6 Xposition Yposition Zposition Xrotation Yrotation Zrotation
	JOINT LeftUpLeg_virtual
	{
		OFFSET 0.000000 0.000000 0.000000
		CHANNELS 3 Xrotation Yrotation Zrotation
		JOINT LeftUpLeg
		{
			OFFSET 11.394100 -6.187798 -0.413800
			CHANNELS 3 Xrotation Yrotation Zrotation
			JOINT LeftLeg
			{
				OFFSET 0.430247 -32.302673 3.732800
				CHANNELS 3 Xrotation Yrotation Zrotation
				JOINT LeftFoot
				{
					OFFSET -0.430247 -48.264931 -6.423300
					CHANNELS 3 Xrotation Yrotation Zrotation
					JOINT LeftToeBase
					{
						OFFSET 4.230900 -16.068199 23.438400
						CHANNELS 3 Xrotation Yrotation Zrotation
						JOINT LeftToe_End
						{
							OFFSET 4.510700 0.695400 19.974600
							CHANNELS 3 Xrotation Yrotation Zrotation
							End Site
							{
								OFFSET 0 0 0
							}
						}
					}
				}
			}
		}
	}
	JOINT RightUpLeg_virtual
	{
		OFFSET 0.000000 0.000000 0.000000
		CHANNELS 3 Xrotation Yrotation Zrotation
		JOINT RightUpLeg
		{
			OFFSET -11.333700 -6.187798 -0.413800
			CHANNELS 3 Xrotation Yrotation Zrotation
			JOINT RightLeg
			{
				OFFSET -0.430392 -32.302628 3.733000
				CHANNELS 3 Xrotation Yrotation Zrotation
				JOINT RightFoot
				{
					OFFSET 0.430392 -48.264973 -6.423500
					CHANNELS 3 Xrotation Yrotation Zrotation
					JOINT RightToeBase
					{
						OFFSET -4.230900 -16.068199 23.438400
						CHANNELS 3 Xrotation Yrotation Zrotation
						JOINT RightToe_End
						{
							OFFSET -4.510700 0.695400 19.974600
							CHANNELS 3 Xrotation Yrotation Zrotation
							End Site
							{
								OFFSET 0 0 0
							}
						}
					}
				}
			}
		}
	}
	JOINT Spine_virtual
	{
		OFFSET 0.000000 0.000000 0.000000
		CHANNELS 3 Xrotation Yrotation Zrotation
		JOINT Spine
		{
			OFFSET -0.002400 12.777504 0.315300
			CHANNELS 3 Xrotation Yrotation Zrotation
			JOINT Spine1
			{
				OFFSET -0.002067 5.816869 0.032633
				CHANNELS 3 Xrotation Yrotation Zrotation
				JOINT Spine1_split
				{
					OFFSET -0.002067 5.816869 0.032633
					CHANNELS 3 Xrotation Yrotation Zrotation
					JOINT Spine2
					{
						OFFSET -0.002067 5.816869 0.032633
						CHANNELS 3 Xrotation Yrotation Zrotation
						JOINT Neck_virtual
						{
							OFFSET 0.000000 0.000000 0.000000
							CHANNELS 3 Xrotation Yrotation Zrotation
							JOINT Neck
							{
								OFFSET -0.003700 21.199493 -0.826900
								CHANNELS 3 Xrotation Yrotation Zrotation
								JOINT Head
								{
									OFFSET 0.000000 20.442200 4.834800
									CHANNELS 3 Xrotation Yrotation Zrotation
									JOINT HeadTop_End
									{
										OFFSET 0.000000 34.668396 4.968400
										CHANNELS 3 Xrotation Yrotation Zrotation
										End Site
										{
											OFFSET 0 0 0
										}
									}
								}
							}
						}
						JOINT LeftShoulder_virtual
						{
							OFFSET 0.000000 0.000000 0.000000
							CHANNELS 3 Xrotation Yrotation Zrotation
							JOINT LeftShoulder
							{
								OFFSET 3.288150 8.794197 -1.372250
								CHANNELS 3 Xrotation Yrotation Zrotation
								JOINT LeftShoulder_split
								{
									OFFSET 3.288150 8.794197 -1.372250
									CHANNELS 3 Xrotation Yrotation Zrotation
									JOINT LeftArm
									{
										OFFSET 11.953299 -2.279007 -0.146200
										CHANNELS 3 Xrotation Yrotation Zrotation
										JOINT LeftForeArm
										{
											OFFSET 18.448900 0.000000 0.000000
											CHANNELS 3 Xrotation Yrotation Zrotation
											JOINT LeftHand
											{
												OFFSET 29.527798 0.000000 0.000000
												CHANNELS 3 Xrotation Yrotation Zrotation
												End Site
												{
													OFFSET 0 0 0
												}
											}
										}
									}
								}
							}
						}
						JOINT RightShoulder_virtual
						{
							OFFSET 0.000000 0.000000 0.000000
							CHANNELS 3 Xrotation Yrotation Zrotation
							JOINT RightShoulder
							{
								OFFSET -3.249400 8.794197 -1.372250
								CHANNELS 3 Xrotation Yrotation Zrotation
								JOINT RightShoulder_split
								{
									OFFSET -3.249400 8.794197 -1.372250
									CHANNELS 3 Xrotation Yrotation Zrotation
									JOINT RightArm
									{
										OFFSET -11.953299 -2.279007 -0.146200
										CHANNELS 3 Xrotation Yrotation Zrotation
										JOINT RightForeArm
										{
											OFFSET -18.448900 0.000000 0.000000
											CHANNELS 3 Xrotation Yrotation Zrotation
											JOINT RightHand
											{
												OFFSET -29.527802 0.000000 0.000000
												CHANNELS 3 Xrotation Yrotation Zrotation
												End Site
												{
													OFFSET 0 0 0
												}
											}
										}
									}
								}
							}
						}
					}
				}
			}
		}
	}
}
MOTION
Frames: 5
Frame Time: 0.03333333
-23.614838 101.427826 -11.367569 0.000000 0.000000 0.000000 -173.055410 -50.212286 -169.849196 -110.477565 -28.391184 3.856617 86.250509 -2.085571 -35.879575 50.905711 -10.658209 -17.373483 -4.942586 -0.597153 -1.244257 0.000000 0.000000 0.000000 -173.665387 -46.643720 -170.990835 -21.152732 29.877156 6.526100 39.420157 9.692186 -6.676387 -8.411326 16.281045 -1.491137 -0.912880 1.714593 2.830206 0.000000 0.000000 0.000000 -171.126811 -49.716745 -166.672667 18.883825 5.341264 1.997440 6.759311 0.066778 0.025931 0.779604 -2.235734 0.773699 0.000000 0.000000 0.000000 10.371867 0.211996 -0.556481 3.855465 38.669369 5.987011 9.030565 47.631823 -31.293946 0.000000 0.000000 0.000000 9.597352 -0.165988 -0.409531 -2.256883 -12.710315 11.529408 3.445853 -0.195024 -1.712704 -54.393137 -49.950587 -41.693302 -96.283073 -26.143116 -90.675249 0.000000 0.000000 0.000000 7.825026 -0.438405 -0.616867 -3.959582 19.966993 3.952313 3.566747 -2.042707 4.292698 -54.877264 14.348055 26.712638 128.709792 41.415562 -124.102488 0.000000 0.000000 0.000000 
-24.913984 103.239899 -12.643005 0.000000 0.000000 0.000000 -172.263136 -46.662664 -167.889287 -116.691951 -25.482507 5.219707 84.939468 -4.795799 -34.361766 48.228403 -14.591751 -21.535187 -10.927864 -0.891409 0.595507 0.000000 0.000000 0.000000 -173.116732 -41.929018 -169.281580 -17.893800 32.156333 5.461924 37.719744 10.186028 -6.397541 -8.327380 17.737842 -2.042929 -2.372257 1.857045 2.587990 0.000000 0.000000 0.000000 -171.252322 -46.252842 -166.130254 19.524045 5.990312 1.660839 7.350809 0.318998 -0.330045 0.546730 -2.075078 0.852736 0.000000 0.000000 0.000000 10.983547 0.412247 -1.058769 5.327115 39.094490 5.251411 8.140837 48.722499 -31.556690 0.000000 0.000000 0.000000 10.316750 0.056070 -0.762152 -1.759231 -12.349560 16.121196 3.520984 -0.670186 -1.671649 -66.076104 -46.646668 -47.597263 -95.906661 -27.852472 -90.588423 0.000000 0.000000 0.000000 8.423253 -0.265536 -1.023892 -2.945823 20.567098 -0.170628 3.814785 -2.485588 4.409895 -61.692222 13.234626 25.848057 130.583627 41.047012 -126.715869 0.000000 0.000000 0.000000 
-25.927505 104.778809 -13.648125 0.000000 0.000000 0.000000 -171.586496 -43.664307 -165.751479 -122.167304 -23.509738 6.365493 85.118637 -8.494069 -32.668122 46.518062 -18.375355 -25.065307 -15.735574 -1.500155 2.940871 0.000000 0.000000 0.000000 -172.704011 -38.321531 -167.575481 -14.968363 34.215406 3.819844 36.862907 10.555420 -5.985759 -7.770827 18.808362 -2.028401 -4.703855 1.916247 2.367241 0.000000 0.000000 0.000000 -171.267663 -43.454422 -165.255812 20.102912 6.468951 1.464911 7.811907 0.486619 -0.702176 0.503045 -2.050987 0.983996 0.000000 0.000000 0.000000 11.487115 0.509194 -1.552719 6.868368 39.415000 4.277712 7.422814 49.634732 -31.892223 0.000000 0.000000 0.000000 10.914098 0.177558 -1.135600 -1.346620 -12.082412 20.532440 3.857381 -0.984240 -1.666641 -74.945528 -42.491765 -51.917163 -95.585458 -29.429745 -90.379829 0.000000 0.000000 0.000000 8.893938 -0.175498 -1.416206 -1.885352 21.067860 -4.324453 4.022356 -3.002485 4.327312 -67.509241 11.618772 23.984230 132.352769 41.105318 -129.057886 0.000000 0.000000 0.000000 
-26.633898 105.757324 -14.360451 0.000000 0.000000 0.000000 -171.019877 -41.537894 -163.705660 -126.030159 -22.167579 7.139551 85.960362 -10.996653 -31.952209 44.585556 -19.449146 -27.098108 -16.662554 -1.844295 4.396664 0.000000 0.000000 0.000000 -172.411815 -35.856055 -165.925130 -12.595120 35.903005 1.822346 36.922900 10.773887 -5.438940 -7.303047 19.407959 -1.540950 -6.882991 1.905423 2.287394 0.000000 0.000000 0.000000 -171.048769 -41.426327 -163.820762 20.614920 6.785194 1.351447 8.124581 0.542173 -1.032982 0.465780 -2.322507 0.977634 0.000000 0.000000 0.000000 11.883331 0.501280 -1.978176 8.421688 39.621818 3.117837 6.824543 50.347541 -32.229498 0.000000 0.000000 0.000000 11.344047 0.198985 -1.461981 -0.992489 -12.001292 24.648549 4.357409 -1.230417 -1.708353 -81.249253 -38.392104 -54.561989 -95.460452 -30.907531 -90.295449 0.000000 0.000000 0.000000 9.178845 -0.165550 -1.753399 -0.848603 21.488567 -8.172141 4.232529 -3.381797 4.298389 -72.360254 9.467140 21.257709 134.315397 41.349344 -131.405422 0.000000 0.000000 0.000000 
-27.166630 106.102623 -14.722679 0.000000 0.000000 0.000000 -170.635925 -40.011200 -161.826743 -127.724811 -21.408844 7.801134 85.959836 -11.555027 -32.512199 41.461273 -17.782524 -28.431993 -15.272014 -1.751111 4.951594 0.000000 0.000000 0.000000 -172.210693 -34.629134 -164.396465 -11.019016 37.241576 -0.139732 37.743601 10.765696 -4.838597 -7.640932 19.411763 -1.090432 -7.555028 1.886130 2.490783 0.000000 0.000000 0.000000 -170.553730 -40.093026 -161.829912 21.126994 6.906404 1.248068 8.263078 0.464412 -1.298395 0.407517 -2.636520 1.055310 0.000000 0.000000 0.000000 12.172479 0.413061 -2.297045 9.951919 39.748767 1.880147 6.317094 50.789270 -32.479875 0.000000 0.000000 0.000000 11.618041 0.122067 -1.721327 -0.670084 -12.073108 28.282031 4.635040 -1.553729 -1.747179 -85.446807 -35.212262 -55.915822 -95.541437 -32.414883 -90.509897 0.000000 0.000000 0.000000 9.293261 -0.227036 -2.005843 0.037952 21.807370 -11.323411 4.520763 -3.647805 4.413769 -76.308533 6.795838 17.992446 136.377117 41.680147 -133.760253 0.000000 0.000000 0.000000 
